<svg xmlns="http://www.w3.org/2000/svg" xmlns:xlink="http://www.w3.org/1999/xlink" width="500" zoomAndPan="magnify" viewBox="0 0 375 374.999991" height="500" preserveAspectRatio="xMidYMid meet" version="1.0"><defs><g/><clipPath id="84b5a2b444"><path d="M 126.070312 155 L 138 155 L 138 172 L 126.070312 172 Z M 126.070312 155 " clip-rule="nonzero"/></clipPath><clipPath id="4c77c1c984"><path d="M 140 99.195312 L 190 99.195312 L 190 148 L 140 148 Z M 140 99.195312 " clip-rule="nonzero"/></clipPath><clipPath id="1409d9ee4c"><path d="M 182 186 L 193 186 L 193 208.695312 L 182 208.695312 Z M 182 186 " clip-rule="nonzero"/></clipPath></defs><rect x="-37.5" width="450" fill="#ffffff" y="-37.499999" height="449.999989" fill-opacity="1"/><rect x="-37.5" width="450" fill="#ffffff" y="-37.499999" height="449.999989" fill-opacity="1"/><path fill="#35302d" d="M 195.480469 205.070312 C 195.25 205.070312 195.019531 205.039062 194.789062 204.964844 C 193.574219 204.585938 192.898438 203.289062 193.28125 202.074219 C 194.851562 197.0625 192.15625 193.207031 192.042969 193.046875 C 191.289062 192.023438 191.511719 190.582031 192.539062 189.828125 C 193.5625 189.074219 195.011719 189.300781 195.765625 190.328125 C 195.9375 190.5625 199.964844 196.160156 197.675781 203.457031 C 197.367188 204.441406 196.460938 205.070312 195.480469 205.070312 " fill-opacity="1" fill-rule="nonzero"/><path fill="#35302d" d="M 163.359375 206.996094 C 162.738281 206.996094 162.117188 206.746094 161.664062 206.253906 C 160.800781 205.316406 160.863281 203.859375 161.796875 202.996094 C 165.714844 199.378906 165.230469 194.613281 165.226562 194.566406 C 165.082031 193.300781 165.992188 192.160156 167.257812 192.015625 C 168.523438 191.875 169.660156 192.785156 169.804688 194.050781 C 169.835938 194.339844 170.539062 201.203125 164.921875 206.386719 C 164.476562 206.792969 163.917969 206.996094 163.359375 206.996094 " fill-opacity="1" fill-rule="nonzero"/><path fill="#35302d" d="M 151.734375 202.3125 C 150.628906 202.3125 149.65625 201.515625 149.464844 200.386719 C 149.253906 199.132812 150.097656 197.941406 151.355469 197.730469 C 156.609375 196.839844 158.800781 192.582031 158.820312 192.539062 C 159.390625 191.402344 160.773438 190.941406 161.914062 191.511719 C 163.050781 192.082031 163.511719 193.46875 162.941406 194.609375 C 162.808594 194.867188 159.65625 201.003906 152.121094 202.277344 C 151.992188 202.300781 151.863281 202.3125 151.734375 202.3125 " fill-opacity="1" fill-rule="nonzero"/><path fill="#d2f0ff" d="M 184.464844 147.394531 L 208.28125 147.394531 C 215.902344 147.394531 222.078125 141.214844 222.078125 133.585938 L 222.078125 123.558594 C 222.078125 115.929688 215.902344 109.75 208.28125 109.75 L 198.257812 109.75 C 190.640625 109.75 184.464844 115.929688 184.464844 123.558594 L 184.464844 147.394531 " fill-opacity="1" fill-rule="nonzero"/><path fill="#35302d" d="M 186.410156 145.449219 L 203.269531 145.449219 C 212.566406 145.449219 220.132812 137.875 220.132812 128.570312 C 220.132812 119.265625 212.566406 111.695312 203.269531 111.695312 C 193.972656 111.695312 186.410156 119.265625 186.410156 128.570312 Z M 203.269531 149.34375 L 182.519531 149.34375 L 182.519531 128.570312 C 182.519531 117.117188 191.828125 107.800781 203.269531 107.800781 C 214.714844 107.800781 224.023438 117.117188 224.023438 128.570312 C 224.023438 140.023438 214.714844 149.34375 203.269531 149.34375 " fill-opacity="1" fill-rule="nonzero"/><g clip-path="url(#84b5a2b444)"><path fill="#35302d" d="M 137.128906 171.988281 L 127.058594 164.816406 C 126.175781 164.1875 126.175781 162.875 127.058594 162.25 L 137.128906 155.074219 L 137.128906 171.988281 " fill-opacity="1" fill-rule="nonzero"/></g><path fill="#ffda3e" d="M 167.886719 195.292969 C 185.371094 195.292969 199.546875 181.101562 199.546875 163.601562 C 199.546875 146.105469 185.371094 131.917969 167.886719 131.917969 C 150.402344 131.917969 136.226562 146.105469 136.226562 163.601562 C 136.226562 181.101562 150.402344 195.292969 167.886719 195.292969 " fill-opacity="1" fill-rule="nonzero"/><path fill="#35302d" d="M 167.886719 134.195312 C 151.683594 134.195312 138.5 147.386719 138.5 163.601562 C 138.5 179.820312 151.683594 193.015625 167.886719 193.015625 C 184.089844 193.015625 197.269531 179.820312 197.269531 163.601562 C 197.269531 147.386719 184.089844 134.195312 167.886719 134.195312 Z M 167.886719 197.566406 C 149.175781 197.566406 133.953125 182.332031 133.953125 163.601562 C 133.953125 144.875 149.175781 129.640625 167.886719 129.640625 C 186.597656 129.640625 201.820312 144.875 201.820312 163.601562 C 201.820312 182.332031 186.597656 197.566406 167.886719 197.566406 " fill-opacity="1" fill-rule="nonzero"/><path fill="#35302d" d="M 178.292969 193.851562 C 182.097656 192.550781 185.566406 190.414062 188.515625 187.636719 C 182.535156 180.554688 168.441406 159.746094 188.285156 139.355469 C 185.269531 136.578125 181.730469 134.464844 177.851562 133.210938 C 177.851562 133.214844 153.109375 161.71875 178.292969 193.851562 " fill-opacity="1" fill-rule="nonzero"/><path fill="#35302d" d="M 164.378906 132.113281 C 158.09375 132.804688 152.359375 135.339844 147.730469 139.167969 C 141.773438 150.851562 138.835938 168.273438 148.019531 188.273438 C 152.730469 192.078125 158.546875 194.554688 164.914062 195.152344 C 158.742188 184.746094 146.746094 158.328125 164.378906 132.113281 " fill-opacity="1" fill-rule="nonzero"/><path fill="#d2f0ff" d="M 186.90625 145.492188 L 159.054688 145.492188 C 150.144531 145.492188 142.921875 138.261719 142.921875 129.34375 L 142.921875 117.613281 C 142.921875 108.695312 150.144531 101.46875 159.054688 101.46875 L 170.773438 101.46875 C 179.683594 101.46875 186.90625 108.695312 186.90625 117.613281 L 186.90625 145.492188 " fill-opacity="1" fill-rule="nonzero"/><g clip-path="url(#4c77c1c984)"><path fill="#35302d" d="M 164.914062 103.746094 C 154.042969 103.746094 145.199219 112.597656 145.199219 123.480469 C 145.199219 134.363281 154.042969 143.214844 164.914062 143.214844 L 184.632812 143.214844 L 184.632812 123.480469 C 184.632812 112.597656 175.789062 103.746094 164.914062 103.746094 Z M 189.183594 147.769531 L 164.914062 147.769531 C 151.53125 147.769531 140.648438 136.871094 140.648438 123.480469 C 140.648438 110.085938 151.53125 99.191406 164.914062 99.191406 C 178.296875 99.191406 189.183594 110.085938 189.183594 123.480469 L 189.183594 147.769531 " fill-opacity="1" fill-rule="nonzero"/></g><path fill="#ffda3e" d="M 230.84375 180.523438 C 239.273438 165.191406 233.375 146.492188 218.058594 138.054688 C 202.742188 129.617188 183.800781 134.632812 175.371094 149.960938 C 166.941406 165.292969 174.363281 181.21875 189.679688 189.65625 C 205 198.09375 222.410156 195.851562 230.84375 180.523438 " fill-opacity="1" fill-rule="nonzero"/><path fill="#35302d" d="M 202.425781 136.253906 C 199.84375 136.253906 197.261719 136.597656 194.734375 137.292969 C 187.292969 139.335938 181.125 144.226562 177.363281 151.058594 C 168.847656 166.546875 177.964844 180.601562 190.777344 187.660156 C 203.589844 194.71875 220.332031 194.910156 228.847656 179.421875 C 232.609375 172.589844 233.4375 164.753906 231.179688 157.371094 C 228.933594 150.015625 223.882812 143.863281 216.960938 140.050781 C 212.398438 137.539062 207.414062 136.253906 202.425781 136.253906 Z M 207.421875 196.789062 C 201.238281 196.789062 194.722656 195.035156 188.582031 191.652344 C 180.464844 187.175781 174.394531 180.632812 171.5 173.222656 C 168.371094 165.210938 169.019531 156.789062 173.375 148.863281 C 177.734375 140.941406 184.890625 135.269531 193.53125 132.898438 C 202.085938 130.550781 211.1875 131.671875 219.15625 136.058594 C 227.121094 140.449219 232.9375 147.542969 235.53125 156.039062 C 238.152344 164.609375 237.191406 173.695312 232.835938 181.621094 C 228.476562 189.542969 221.714844 194.597656 213.277344 196.238281 C 211.375 196.605469 209.414062 196.789062 207.421875 196.789062 " fill-opacity="1" fill-rule="nonzero"/><path fill="#35302d" d="M 225.222656 168.609375 C 226.21875 166.804688 225.5625 164.535156 223.753906 163.539062 C 221.949219 162.546875 219.679688 163.203125 218.6875 165.007812 C 217.695312 166.816406 218.351562 169.089844 220.15625 170.082031 C 221.960938 171.074219 224.230469 170.417969 225.222656 168.609375 " fill-opacity="1" fill-rule="nonzero"/><path fill="#35302d" d="M 195.015625 151.96875 C 196.007812 150.160156 195.351562 147.890625 193.546875 146.898438 C 191.742188 145.902344 189.472656 146.5625 188.476562 148.367188 C 187.484375 150.175781 188.144531 152.445312 189.949219 153.4375 C 191.753906 154.433594 194.023438 153.777344 195.015625 151.96875 " fill-opacity="1" fill-rule="nonzero"/><path fill="#35302d" d="M 200.296875 158.777344 C 199.53125 159.953125 199.410156 161.4375 199.933594 162.734375 C 200.410156 163.917969 201.226562 164.871094 202.242188 165.625 C 203.722656 166.714844 205.820312 167.375 207.628906 166.8125 C 208.851562 166.433594 209.8125 165.535156 210.386719 164.398438 C 210.644531 163.890625 210.535156 163.199219 209.996094 162.914062 C 209.503906 162.65625 208.789062 162.761719 208.515625 163.304688 C 208.414062 163.507812 208.300781 163.703125 208.171875 163.886719 L 208.132812 163.945312 C 208.078125 164.019531 208.078125 164.019531 208.132812 163.949219 L 208.175781 163.890625 C 208.144531 163.929688 208.117188 163.964844 208.085938 164 C 208.015625 164.082031 207.941406 164.160156 207.863281 164.238281 C 207.789062 164.304688 207.679688 164.371094 207.621094 164.445312 C 207.632812 164.429688 207.839844 164.292969 207.695312 164.386719 L 207.59375 164.457031 C 207.507812 164.511719 207.421875 164.5625 207.332031 164.609375 L 207.226562 164.664062 C 207.035156 164.765625 207.472656 164.574219 207.269531 164.644531 C 207.105469 164.703125 206.941406 164.757812 206.769531 164.796875 C 206.71875 164.808594 206.414062 164.855469 206.628906 164.828125 C 206.832031 164.800781 206.636719 164.824219 206.597656 164.828125 C 206.542969 164.832031 206.484375 164.835938 206.425781 164.839844 C 206.25 164.847656 206.074219 164.84375 205.898438 164.828125 C 205.855469 164.824219 205.816406 164.820312 205.777344 164.816406 C 205.5625 164.800781 206.007812 164.859375 205.859375 164.832031 C 205.753906 164.808594 205.644531 164.796875 205.539062 164.773438 C 205.363281 164.734375 205.1875 164.6875 205.015625 164.632812 C 204.9375 164.609375 204.863281 164.582031 204.785156 164.554688 C 204.738281 164.539062 204.691406 164.519531 204.644531 164.503906 C 204.609375 164.488281 204.398438 164.40625 204.578125 164.480469 C 204.761719 164.554688 204.484375 164.433594 204.4375 164.410156 C 204.347656 164.367188 204.257812 164.324219 204.167969 164.277344 C 204.007812 164.1875 203.84375 164.09375 203.691406 163.992188 C 203.546875 163.902344 203.410156 163.800781 203.269531 163.703125 C 203.15625 163.621094 203.492188 163.882812 203.335938 163.75 L 203.253906 163.683594 C 203.183594 163.625 203.117188 163.566406 203.054688 163.507812 C 202.855469 163.324219 202.679688 163.117188 202.5 162.917969 C 202.382812 162.792969 202.644531 163.128906 202.484375 162.90625 C 202.453125 162.859375 202.421875 162.8125 202.390625 162.769531 C 202.308594 162.652344 202.234375 162.535156 202.167969 162.414062 C 202.089844 162.285156 202.027344 162.148438 201.960938 162.011719 C 201.890625 161.863281 202.042969 162.257812 201.960938 162.007812 C 201.9375 161.929688 201.910156 161.855469 201.886719 161.777344 C 201.847656 161.648438 201.816406 161.519531 201.792969 161.390625 C 201.746094 161.1875 201.785156 161.421875 201.792969 161.441406 C 201.765625 161.378906 201.777344 161.277344 201.773438 161.207031 C 201.769531 161.089844 201.738281 160.839844 201.792969 160.730469 C 201.78125 160.746094 201.742188 160.988281 201.789062 160.78125 C 201.804688 160.703125 201.820312 160.621094 201.84375 160.542969 C 201.859375 160.492188 201.875 160.4375 201.890625 160.386719 C 201.910156 160.332031 201.929688 160.28125 201.949219 160.230469 L 201.90625 160.332031 C 201.929688 160.1875 202.089844 159.992188 202.167969 159.871094 C 202.476562 159.394531 202.277344 158.652344 201.777344 158.386719 C 201.238281 158.101562 200.625 158.269531 200.296875 158.777344 " fill-opacity="1" fill-rule="nonzero"/><path fill="#f76371" d="M 186.832031 156.882812 C 188.035156 154.695312 187.238281 151.949219 185.054688 150.742188 C 182.871094 149.539062 180.125 150.335938 178.921875 152.523438 C 177.71875 154.710938 178.515625 157.460938 180.699219 158.660156 C 182.882812 159.867188 185.628906 159.070312 186.832031 156.882812 " fill-opacity="1" fill-rule="nonzero"/><path fill="#f76371" d="M 227.242188 179.144531 C 228.445312 176.957031 227.648438 174.210938 225.464844 173.007812 C 223.28125 171.804688 220.535156 172.601562 219.332031 174.785156 C 218.128906 176.972656 218.925781 179.71875 221.109375 180.925781 C 223.296875 182.128906 226.039062 181.332031 227.242188 179.144531 " fill-opacity="1" fill-rule="nonzero"/><path fill="#ffffff" d="M 192.304688 149.152344 C 192.589844 148.632812 192.402344 147.984375 191.882812 147.695312 C 191.367188 147.410156 190.714844 147.601562 190.429688 148.121094 C 190.144531 148.636719 190.332031 149.289062 190.851562 149.574219 C 191.371094 149.859375 192.019531 149.671875 192.304688 149.152344 " fill-opacity="1" fill-rule="nonzero"/><path fill="#ffffff" d="M 222.515625 165.792969 C 222.800781 165.277344 222.613281 164.625 222.09375 164.339844 C 221.574219 164.054688 220.925781 164.242188 220.640625 164.761719 C 220.355469 165.277344 220.542969 165.929688 221.0625 166.214844 C 221.578125 166.5 222.230469 166.3125 222.515625 165.792969 " fill-opacity="1" fill-rule="nonzero"/><path fill="#35302d" d="M 230.386719 148.433594 L 226.636719 145.855469 C 226.730469 145.714844 228.992188 142.449219 233.011719 139.917969 C 238.464844 136.480469 244.53125 135.992188 250.554688 138.503906 L 248.804688 142.707031 C 237.722656 138.085938 230.683594 148.007812 230.386719 148.433594 " fill-opacity="1" fill-rule="nonzero"/><path fill="#ffda3e" d="M 256.785156 143.433594 C 257.65625 140.761719 256.199219 137.886719 253.527344 137.011719 C 250.855469 136.140625 247.984375 137.601562 247.113281 140.273438 C 246.238281 142.945312 247.699219 145.820312 250.367188 146.695312 C 253.039062 147.566406 255.910156 146.109375 256.785156 143.433594 " fill-opacity="1" fill-rule="nonzero"/><path fill="#35302d" d="M 251.949219 139.039062 C 250.765625 139.039062 249.660156 139.792969 249.273438 140.980469 C 248.792969 142.457031 249.601562 144.046875 251.074219 144.53125 C 252.546875 145.011719 254.140625 144.203125 254.621094 142.726562 C 255.101562 141.253906 254.296875 139.660156 252.820312 139.179688 C 252.53125 139.085938 252.238281 139.039062 251.949219 139.039062 Z M 251.941406 149.222656 C 251.1875 149.222656 250.417969 149.105469 249.660156 148.859375 C 245.800781 147.597656 243.6875 143.429688 244.949219 139.566406 C 246.210938 135.703125 250.375 133.585938 254.234375 134.847656 C 258.09375 136.109375 260.207031 140.28125 258.945312 144.140625 C 257.933594 147.246094 255.042969 149.222656 251.941406 149.222656 " fill-opacity="1" fill-rule="nonzero"/><path fill="#35302d" d="M 206.886719 134.972656 L 202.703125 133.175781 L 204.792969 134.074219 L 202.699219 133.179688 C 202.902344 132.707031 207.511719 121.445312 197.679688 114.542969 L 200.296875 110.816406 C 205.636719 114.566406 208.46875 119.957031 208.488281 126.40625 C 208.5 131.160156 206.949219 134.820312 206.886719 134.972656 " fill-opacity="1" fill-rule="nonzero"/><path fill="#ffda3e" d="M 192.800781 108.1875 C 194.589844 106.019531 197.796875 105.714844 199.960938 107.503906 C 202.128906 109.296875 202.433594 112.507812 200.644531 114.671875 C 198.851562 116.839844 195.644531 117.148438 193.480469 115.355469 C 191.316406 113.5625 191.007812 110.355469 192.800781 108.1875 " fill-opacity="1" fill-rule="nonzero"/><path fill="#35302d" d="M 196.726562 108.617188 C 196.636719 108.617188 196.546875 108.617188 196.453125 108.628906 C 195.707031 108.699219 195.03125 109.058594 194.554688 109.636719 C 194.074219 110.21875 193.851562 110.949219 193.921875 111.695312 C 193.992188 112.445312 194.351562 113.121094 194.929688 113.601562 C 196.125 114.589844 197.902344 114.417969 198.890625 113.222656 C 199.367188 112.644531 199.589844 111.914062 199.519531 111.164062 C 199.449219 110.414062 199.089844 109.738281 198.511719 109.261719 C 198.003906 108.839844 197.378906 108.617188 196.726562 108.617188 Z M 196.714844 118.796875 C 195.0625 118.796875 193.402344 118.246094 192.03125 117.113281 C 190.515625 115.855469 189.578125 114.085938 189.390625 112.128906 C 189.203125 110.167969 189.792969 108.253906 191.046875 106.738281 C 192.296875 105.21875 194.066406 104.28125 196.023438 104.09375 C 197.980469 103.90625 199.894531 104.496094 201.410156 105.75 C 202.929688 107.003906 203.863281 108.773438 204.050781 110.734375 C 204.238281 112.691406 203.648438 114.605469 202.398438 116.125 C 200.941406 117.886719 198.835938 118.796875 196.714844 118.796875 " fill-opacity="1" fill-rule="nonzero"/><path fill="#f76371" d="M 239.695312 123.78125 L 238.007812 121.550781 C 237.917969 121.4375 237.121094 120.375 236.363281 119.089844 C 235.410156 117.476562 234.417969 115.414062 234.769531 113.300781 C 235.214844 110.617188 237.941406 108.867188 240.503906 109.765625 C 242.203125 110.359375 243.292969 111.898438 243.398438 113.582031 C 244.558594 112.359375 246.382812 111.878906 248.066406 112.515625 C 250.609375 113.476562 251.570312 116.566406 250.191406 118.910156 C 249.105469 120.757812 247.023438 121.699219 245.257812 122.328125 C 243.851562 122.824219 242.5625 123.125 242.417969 123.160156 L 239.695312 123.78125 " fill-opacity="1" fill-rule="nonzero"/><g clip-path="url(#1409d9ee4c)"><path fill="#35302d" d="M 189.921875 208.679688 C 189.332031 208.679688 188.738281 208.453125 188.289062 208 C 182.210938 201.878906 182.550781 189.277344 182.566406 188.746094 C 182.609375 187.472656 183.667969 186.476562 184.945312 186.515625 C 186.21875 186.558594 187.214844 187.625 187.171875 188.894531 C 187.078125 191.984375 187.679688 200.84375 191.558594 204.75 C 192.453125 205.652344 192.449219 207.113281 191.546875 208.011719 C 191.097656 208.457031 190.507812 208.679688 189.921875 208.679688 " fill-opacity="1" fill-rule="nonzero"/></g><g fill="#ffda3e" fill-opacity="1"><g transform="translate(128.979847, 243.010311)"><g><path d="M 5.921875 0 C 4.910156 0 4.132812 -0.269531 3.59375 -0.8125 C 3.050781 -1.351562 2.789062 -2.128906 2.8125 -3.140625 C 2.8125 -4.773438 2.816406 -6.398438 2.828125 -8.015625 C 2.835938 -9.628906 2.84375 -11.238281 2.84375 -12.84375 C 2.84375 -14.445312 2.835938 -16.054688 2.828125 -17.671875 C 2.816406 -19.285156 2.8125 -20.894531 2.8125 -22.5 C 2.789062 -23.507812 3.050781 -24.285156 3.59375 -24.828125 C 4.132812 -25.367188 4.910156 -25.640625 5.921875 -25.640625 L 6.59375 -25.640625 C 7.601562 -25.640625 8.378906 -25.367188 8.921875 -24.828125 C 9.460938 -24.285156 9.71875 -23.507812 9.6875 -22.5 C 9.6875 -21.21875 9.6875 -19.929688 9.6875 -18.640625 C 9.6875 -17.359375 9.6875 -16.066406 9.6875 -14.765625 L 10.578125 -15.359375 C 11.566406 -15.992188 12.40625 -16.988281 13.09375 -18.34375 C 13.789062 -19.707031 14.332031 -21.175781 14.71875 -22.75 C 14.945312 -23.71875 15.328125 -24.441406 15.859375 -24.921875 C 16.390625 -25.398438 17.132812 -25.640625 18.09375 -25.640625 L 18.796875 -25.640625 C 19.929688 -25.640625 20.75 -25.3125 21.25 -24.65625 C 21.757812 -24.007812 21.816406 -23.140625 21.421875 -22.046875 C 20.734375 -20.148438 19.941406 -18.460938 19.046875 -16.984375 C 18.160156 -15.503906 17.210938 -14.476562 16.203125 -13.90625 L 16.203125 -13.734375 C 17.285156 -13.554688 18.171875 -13.164062 18.859375 -12.5625 C 19.554688 -11.957031 20.1875 -10.898438 20.75 -9.390625 C 20.945312 -8.847656 21.15625 -8.171875 21.375 -7.359375 C 21.601562 -6.546875 21.914062 -5.328125 22.3125 -3.703125 C 22.582031 -2.546875 22.476562 -1.640625 22 -0.984375 C 21.519531 -0.328125 20.722656 0 19.609375 0 L 18.640625 0 C 16.742188 0 15.613281 -1.023438 15.25 -3.078125 C 14.875 -5.046875 14.503906 -6.5625 14.140625 -7.625 C 13.785156 -8.6875 13.382812 -9.425781 12.9375 -9.84375 C 12.5 -10.257812 11.972656 -10.46875 11.359375 -10.46875 C 11.035156 -10.46875 10.765625 -10.460938 10.546875 -10.453125 C 10.328125 -10.441406 10.039062 -10.382812 9.6875 -10.28125 C 9.6875 -9.101562 9.6875 -7.921875 9.6875 -6.734375 C 9.6875 -5.546875 9.6875 -4.347656 9.6875 -3.140625 C 9.71875 -2.128906 9.460938 -1.351562 8.921875 -0.8125 C 8.378906 -0.269531 7.601562 0 6.59375 0 Z M 5.921875 0 "/></g></g></g><g fill="#ffda3e" fill-opacity="1"><g transform="translate(153.508242, 243.010311)"><g><path d="M 5.921875 0 C 3.828125 0 2.78125 -1.046875 2.78125 -3.140625 L 2.78125 -22.5 C 2.78125 -24.59375 3.828125 -25.640625 5.921875 -25.640625 L 6.59375 -25.640625 C 8.6875 -25.640625 9.734375 -24.59375 9.734375 -22.5 L 9.734375 -3.140625 C 9.734375 -1.046875 8.6875 0 6.59375 0 Z M 5.921875 0 "/></g></g></g><g fill="#ffda3e" fill-opacity="1"><g transform="translate(166.012914, 243.010311)"><g><path d="M 11.21875 0.03125 L 5.921875 0 C 3.828125 0 2.78125 -1.023438 2.78125 -3.078125 C 2.78125 -3.910156 2.785156 -4.863281 2.796875 -5.9375 C 2.804688 -7.007812 2.816406 -8.285156 2.828125 -9.765625 C 2.835938 -11.242188 2.84375 -13.003906 2.84375 -15.046875 C 2.84375 -17.097656 2.84375 -19.53125 2.84375 -22.34375 C 2.84375 -24.539062 3.894531 -25.640625 6 -25.640625 L 11.21875 -25.640625 C 14.019531 -25.640625 16.289062 -25.222656 18.03125 -24.390625 C 19.769531 -23.566406 21.046875 -22.242188 21.859375 -20.421875 C 22.679688 -18.597656 23.09375 -16.179688 23.09375 -13.171875 C 23.09375 -8.679688 22.160156 -5.363281 20.296875 -3.21875 C 18.429688 -1.070312 15.40625 0.0078125 11.21875 0.03125 Z M 9.734375 -5.109375 L 11.0625 -5.109375 C 12.988281 -5.109375 14.332031 -5.78125 15.09375 -7.125 C 15.863281 -8.46875 16.25 -10.375 16.25 -12.84375 C 16.25 -14.738281 16.09375 -16.25 15.78125 -17.375 C 15.46875 -18.5 14.9375 -19.304688 14.1875 -19.796875 C 13.4375 -20.285156 12.394531 -20.53125 11.0625 -20.53125 L 9.734375 -20.53125 C 9.734375 -19.695312 9.722656 -18.789062 9.703125 -17.8125 C 9.691406 -16.84375 9.6875 -15.671875 9.6875 -14.296875 C 9.6875 -12.929688 9.6875 -11.1875 9.6875 -9.0625 C 9.6875 -8.394531 9.6875 -7.726562 9.6875 -7.0625 C 9.6875 -6.394531 9.703125 -5.742188 9.734375 -5.109375 Z M 9.734375 -5.109375 "/></g></g></g><g fill="#ffda3e" fill-opacity="1"><g transform="translate(190.948261, 243.010311)"><g><path d="M 11.21875 0.03125 L 5.921875 0 C 3.828125 0 2.78125 -1.023438 2.78125 -3.078125 C 2.78125 -3.910156 2.785156 -4.863281 2.796875 -5.9375 C 2.804688 -7.007812 2.816406 -8.285156 2.828125 -9.765625 C 2.835938 -11.242188 2.84375 -13.003906 2.84375 -15.046875 C 2.84375 -17.097656 2.84375 -19.53125 2.84375 -22.34375 C 2.84375 -24.539062 3.894531 -25.640625 6 -25.640625 L 11.21875 -25.640625 C 14.019531 -25.640625 16.289062 -25.222656 18.03125 -24.390625 C 19.769531 -23.566406 21.046875 -22.242188 21.859375 -20.421875 C 22.679688 -18.597656 23.09375 -16.179688 23.09375 -13.171875 C 23.09375 -8.679688 22.160156 -5.363281 20.296875 -3.21875 C 18.429688 -1.070312 15.40625 0.0078125 11.21875 0.03125 Z M 9.734375 -5.109375 L 11.0625 -5.109375 C 12.988281 -5.109375 14.332031 -5.78125 15.09375 -7.125 C 15.863281 -8.46875 16.25 -10.375 16.25 -12.84375 C 16.25 -14.738281 16.09375 -16.25 15.78125 -17.375 C 15.46875 -18.5 14.9375 -19.304688 14.1875 -19.796875 C 13.4375 -20.285156 12.394531 -20.53125 11.0625 -20.53125 L 9.734375 -20.53125 C 9.734375 -19.695312 9.722656 -18.789062 9.703125 -17.8125 C 9.691406 -16.84375 9.6875 -15.671875 9.6875 -14.296875 C 9.6875 -12.929688 9.6875 -11.1875 9.6875 -9.0625 C 9.6875 -8.394531 9.6875 -7.726562 9.6875 -7.0625 C 9.6875 -6.394531 9.703125 -5.742188 9.734375 -5.109375 Z M 9.734375 -5.109375 "/></g></g></g><g fill="#ffda3e" fill-opacity="1"><g transform="translate(215.883608, 243.010311)"><g><path d="M 15.65625 -22.3125 C 15.726562 -24.507812 16.773438 -25.609375 18.796875 -25.609375 C 19.828125 -25.609375 20.59375 -25.320312 21.09375 -24.75 C 21.601562 -24.1875 21.800781 -23.382812 21.6875 -22.34375 C 21.4375 -20.25 21.0625 -18.238281 20.5625 -16.3125 C 20.070312 -14.394531 19.367188 -12.710938 18.453125 -11.265625 C 17.546875 -9.828125 16.34375 -8.757812 14.84375 -8.0625 C 14.882812 -7.15625 14.910156 -6.304688 14.921875 -5.515625 C 14.941406 -4.722656 14.960938 -3.929688 14.984375 -3.140625 C 15.003906 -2.128906 14.742188 -1.351562 14.203125 -0.8125 C 13.660156 -0.269531 12.882812 0 11.875 0 L 11.21875 0 C 10.195312 0 9.414062 -0.269531 8.875 -0.8125 C 8.332031 -1.351562 8.078125 -2.128906 8.109375 -3.140625 C 8.128906 -3.910156 8.15625 -4.679688 8.1875 -5.453125 C 8.226562 -6.234375 8.257812 -7.066406 8.28125 -7.953125 C 6.851562 -8.671875 5.6875 -9.738281 4.78125 -11.15625 C 3.882812 -12.570312 3.175781 -14.242188 2.65625 -16.171875 C 2.144531 -18.097656 1.738281 -20.15625 1.4375 -22.34375 C 1.34375 -23.382812 1.546875 -24.1875 2.046875 -24.75 C 2.554688 -25.320312 3.34375 -25.609375 4.40625 -25.609375 L 6 -25.609375 C 8.019531 -25.609375 9.09375 -24.546875 9.21875 -22.421875 C 9.363281 -20.398438 9.523438 -18.648438 9.703125 -17.171875 C 9.890625 -15.691406 10.195312 -14.554688 10.625 -13.765625 C 11.0625 -12.972656 11.710938 -12.578125 12.578125 -12.578125 C 14.398438 -12.578125 15.425781 -15.820312 15.65625 -22.3125 Z M 15.65625 -22.3125 "/></g></g></g><g fill="#35302d" fill-opacity="1"><g transform="translate(169.83274, 255.810365)"><g><path d="M 3.34375 -5.546875 C 3.738281 -5.546875 4.09375 -5.460938 4.40625 -5.296875 C 4.726562 -5.128906 4.984375 -4.847656 5.171875 -4.453125 C 5.367188 -4.054688 5.46875 -3.515625 5.46875 -2.828125 C 5.46875 -2.171875 5.375 -1.625 5.1875 -1.1875 C 5 -0.757812 4.742188 -0.4375 4.421875 -0.21875 C 4.109375 0 3.757812 0.109375 3.375 0.109375 C 3.050781 0.109375 2.769531 0.0390625 2.53125 -0.09375 C 2.289062 -0.238281 2.097656 -0.425781 1.953125 -0.65625 C 1.921875 -0.625 1.882812 -0.585938 1.84375 -0.546875 C 1.8125 -0.515625 1.78125 -0.476562 1.75 -0.4375 C 1.59375 -0.289062 1.453125 -0.179688 1.328125 -0.109375 C 1.203125 -0.0351562 1.066406 0 0.921875 0 C 0.648438 0 0.515625 -0.28125 0.515625 -0.84375 C 0.515625 -1.320312 0.519531 -1.796875 0.53125 -2.265625 C 0.539062 -2.734375 0.546875 -3.207031 0.546875 -3.6875 C 0.546875 -4.113281 0.539062 -4.546875 0.53125 -4.984375 C 0.519531 -5.429688 0.515625 -5.875 0.515625 -6.3125 C 0.515625 -6.875 0.796875 -7.15625 1.359375 -7.15625 L 1.375 -7.15625 C 1.9375 -7.15625 2.21875 -6.875 2.21875 -6.3125 C 2.21875 -6.113281 2.21875 -5.910156 2.21875 -5.703125 C 2.21875 -5.503906 2.210938 -5.304688 2.203125 -5.109375 C 2.347656 -5.242188 2.515625 -5.347656 2.703125 -5.421875 C 2.890625 -5.503906 3.101562 -5.546875 3.34375 -5.546875 Z M 2.90625 -1.21875 C 3.082031 -1.21875 3.242188 -1.257812 3.390625 -1.34375 C 3.535156 -1.425781 3.648438 -1.578125 3.734375 -1.796875 C 3.828125 -2.015625 3.875 -2.320312 3.875 -2.71875 C 3.875 -3.25 3.785156 -3.617188 3.609375 -3.828125 C 3.429688 -4.035156 3.1875 -4.140625 2.875 -4.140625 C 2.601562 -4.140625 2.375 -4.070312 2.1875 -3.9375 L 2.1875 -3.625 C 2.1875 -3.300781 2.1875 -2.984375 2.1875 -2.671875 C 2.1875 -2.367188 2.191406 -2.0625 2.203125 -1.75 C 2.265625 -1.550781 2.359375 -1.410156 2.484375 -1.328125 C 2.609375 -1.253906 2.75 -1.21875 2.90625 -1.21875 Z M 2.90625 -1.21875 "/></g></g></g><g fill="#35302d" fill-opacity="1"><g transform="translate(175.654349, 255.810365)"><g><path d="M 5.40625 -2.53125 C 5.40625 -2.320312 5.40625 -2.113281 5.40625 -1.90625 C 5.40625 -1.695312 5.40625 -1.488281 5.40625 -1.28125 C 5.425781 -0.382812 5.300781 0.335938 5.03125 0.890625 C 4.757812 1.453125 4.378906 1.859375 3.890625 2.109375 C 3.398438 2.359375 2.820312 2.484375 2.15625 2.484375 C 2.039062 2.484375 1.925781 2.476562 1.8125 2.46875 C 1.707031 2.457031 1.597656 2.445312 1.484375 2.4375 C 1.242188 2.394531 1.070312 2.289062 0.96875 2.125 C 0.863281 1.96875 0.820312 1.78125 0.84375 1.5625 C 0.851562 1.34375 0.9375 1.1875 1.09375 1.09375 C 1.25 1 1.46875 0.957031 1.75 0.96875 C 2.257812 0.988281 2.671875 0.941406 2.984375 0.828125 C 3.304688 0.722656 3.539062 0.515625 3.6875 0.203125 C 3.832031 -0.0976562 3.90625 -0.53125 3.90625 -1.09375 L 3.875 -1.109375 C 3.726562 -0.734375 3.507812 -0.4375 3.21875 -0.21875 C 2.9375 0 2.609375 0.109375 2.234375 0.109375 C 1.703125 0.109375 1.289062 -0.0390625 1 -0.34375 C 0.707031 -0.644531 0.566406 -1.171875 0.578125 -1.921875 C 0.597656 -2.378906 0.601562 -2.828125 0.59375 -3.265625 C 0.582031 -3.710938 0.578125 -4.164062 0.578125 -4.625 C 0.578125 -5.175781 0.851562 -5.453125 1.40625 -5.453125 L 1.46875 -5.453125 C 2.03125 -5.453125 2.3125 -5.175781 2.3125 -4.625 C 2.300781 -4.21875 2.296875 -3.820312 2.296875 -3.4375 C 2.296875 -3.050781 2.296875 -2.648438 2.296875 -2.234375 C 2.296875 -1.953125 2.359375 -1.738281 2.484375 -1.59375 C 2.609375 -1.457031 2.765625 -1.394531 2.953125 -1.40625 C 3.179688 -1.40625 3.359375 -1.5 3.484375 -1.6875 C 3.617188 -1.875 3.6875 -2.15625 3.6875 -2.53125 C 3.707031 -2.882812 3.710938 -3.234375 3.703125 -3.578125 C 3.703125 -3.921875 3.695312 -4.269531 3.6875 -4.625 C 3.6875 -4.894531 3.757812 -5.097656 3.90625 -5.234375 C 4.050781 -5.378906 4.253906 -5.453125 4.515625 -5.453125 L 4.578125 -5.453125 C 5.140625 -5.453125 5.421875 -5.171875 5.421875 -4.609375 C 5.410156 -4.265625 5.40625 -3.921875 5.40625 -3.578125 C 5.40625 -3.234375 5.40625 -2.882812 5.40625 -2.53125 Z M 5.40625 -2.53125 "/></g></g></g><g fill="#35302d" fill-opacity="1"><g transform="translate(181.643694, 255.810365)"><g/></g></g><g fill="#35302d" fill-opacity="1"><g transform="translate(184.110479, 255.810365)"><g><path d="M 6.96875 -6.84375 C 7.519531 -6.84375 7.796875 -6.5625 7.796875 -6 C 7.796875 -5.570312 7.796875 -5.140625 7.796875 -4.703125 C 7.796875 -4.273438 7.796875 -3.847656 7.796875 -3.421875 C 7.796875 -2.992188 7.796875 -2.5625 7.796875 -2.125 C 7.796875 -1.695312 7.796875 -1.269531 7.796875 -0.84375 C 7.796875 -0.28125 7.519531 0 6.96875 0 L 6.78125 0 C 6.21875 0 5.9375 -0.28125 5.9375 -0.84375 C 5.945312 -1.269531 5.953125 -1.695312 5.953125 -2.125 C 5.960938 -2.5625 5.96875 -2.992188 5.96875 -3.421875 L 5.953125 -4.734375 L 5.921875 -4.734375 L 4.796875 -1.46875 C 4.628906 -1.019531 4.382812 -0.796875 4.0625 -0.796875 C 3.738281 -0.796875 3.503906 -1.023438 3.359375 -1.484375 L 2.328125 -4.734375 L 2.265625 -4.734375 C 2.273438 -4.128906 2.28125 -3.597656 2.28125 -3.140625 C 2.289062 -2.691406 2.300781 -2.28125 2.3125 -1.90625 C 2.320312 -1.539062 2.332031 -1.1875 2.34375 -0.84375 C 2.363281 -0.570312 2.300781 -0.363281 2.15625 -0.21875 C 2.019531 -0.0703125 1.820312 0 1.5625 0 C 1.300781 0 1.097656 -0.0703125 0.953125 -0.21875 C 0.804688 -0.363281 0.738281 -0.570312 0.75 -0.84375 C 0.757812 -2.5625 0.757812 -4.28125 0.75 -6 C 0.738281 -6.269531 0.804688 -6.476562 0.953125 -6.625 C 1.097656 -6.769531 1.304688 -6.84375 1.578125 -6.84375 L 2.484375 -6.84375 C 2.960938 -6.84375 3.285156 -6.625 3.453125 -6.1875 L 4.296875 -3.9375 L 5 -6.15625 C 5.144531 -6.613281 5.460938 -6.84375 5.953125 -6.84375 Z M 6.96875 -6.84375 "/></g></g></g><g fill="#35302d" fill-opacity="1"><g transform="translate(192.645551, 255.810365)"><g><path d="M 2.890625 0.09375 C 1.578125 0.09375 0.796875 -0.351562 0.546875 -1.25 C 0.472656 -1.519531 0.515625 -1.726562 0.671875 -1.875 C 0.828125 -2.03125 1.03125 -2.109375 1.28125 -2.109375 L 1.359375 -2.109375 C 1.515625 -2.109375 1.632812 -2.078125 1.71875 -2.015625 C 1.8125 -1.953125 1.894531 -1.875 1.96875 -1.78125 C 2.050781 -1.6875 2.148438 -1.578125 2.265625 -1.453125 C 2.398438 -1.316406 2.628906 -1.25 2.953125 -1.25 C 3.472656 -1.25 3.734375 -1.453125 3.734375 -1.859375 C 3.734375 -2.085938 3.65625 -2.265625 3.5 -2.390625 C 3.351562 -2.523438 3.160156 -2.632812 2.921875 -2.71875 C 2.679688 -2.800781 2.425781 -2.882812 2.15625 -2.96875 C 1.882812 -3.0625 1.628906 -3.175781 1.390625 -3.3125 C 1.148438 -3.457031 0.953125 -3.65625 0.796875 -3.90625 C 0.648438 -4.15625 0.578125 -4.476562 0.578125 -4.875 C 0.578125 -5.625 0.796875 -6.15625 1.234375 -6.46875 C 1.671875 -6.78125 2.285156 -6.9375 3.078125 -6.9375 C 3.847656 -6.9375 4.425781 -6.78125 4.8125 -6.46875 C 5.207031 -6.15625 5.429688 -5.707031 5.484375 -5.125 C 5.503906 -4.851562 5.4375 -4.648438 5.28125 -4.515625 C 5.125 -4.378906 4.921875 -4.3125 4.671875 -4.3125 C 4.421875 -4.3125 4.242188 -4.378906 4.140625 -4.515625 C 4.035156 -4.660156 3.953125 -4.875 3.890625 -5.15625 C 3.847656 -5.363281 3.753906 -5.503906 3.609375 -5.578125 C 3.472656 -5.660156 3.285156 -5.703125 3.046875 -5.703125 C 2.765625 -5.703125 2.566406 -5.628906 2.453125 -5.484375 C 2.347656 -5.335938 2.296875 -5.148438 2.296875 -4.921875 C 2.296875 -4.691406 2.351562 -4.507812 2.46875 -4.375 C 2.582031 -4.238281 2.738281 -4.128906 2.9375 -4.046875 C 3.132812 -3.972656 3.347656 -3.90625 3.578125 -3.84375 C 3.816406 -3.78125 4.050781 -3.707031 4.28125 -3.625 C 4.519531 -3.539062 4.738281 -3.4375 4.9375 -3.3125 C 5.132812 -3.1875 5.289062 -3.015625 5.40625 -2.796875 C 5.53125 -2.585938 5.59375 -2.3125 5.59375 -1.96875 C 5.59375 -1.289062 5.363281 -0.773438 4.90625 -0.421875 C 4.445312 -0.078125 3.773438 0.09375 2.890625 0.09375 Z M 2.890625 0.09375 "/></g></g></g><g fill="#35302d" fill-opacity="1"><g transform="translate(198.615166, 255.810365)"><g><path d="M 1.578125 0 C 1.304688 0 1.097656 -0.0703125 0.953125 -0.21875 C 0.804688 -0.363281 0.738281 -0.570312 0.75 -0.84375 C 0.75 -1.269531 0.75 -1.695312 0.75 -2.125 C 0.757812 -2.5625 0.765625 -2.992188 0.765625 -3.421875 C 0.765625 -3.847656 0.757812 -4.273438 0.75 -4.703125 C 0.75 -5.140625 0.75 -5.570312 0.75 -6 C 0.738281 -6.269531 0.804688 -6.476562 0.953125 -6.625 C 1.097656 -6.769531 1.304688 -6.84375 1.578125 -6.84375 L 1.75 -6.84375 C 2.019531 -6.84375 2.226562 -6.769531 2.375 -6.625 C 2.519531 -6.476562 2.59375 -6.269531 2.59375 -6 C 2.59375 -5.65625 2.59375 -5.3125 2.59375 -4.96875 C 2.59375 -4.632812 2.59375 -4.289062 2.59375 -3.9375 L 2.828125 -4.09375 C 3.085938 -4.269531 3.304688 -4.535156 3.484375 -4.890625 C 3.671875 -5.253906 3.820312 -5.648438 3.9375 -6.078125 C 3.988281 -6.328125 4.082031 -6.515625 4.21875 -6.640625 C 4.363281 -6.773438 4.566406 -6.84375 4.828125 -6.84375 L 5.015625 -6.84375 C 5.316406 -6.84375 5.535156 -6.753906 5.671875 -6.578125 C 5.804688 -6.398438 5.820312 -6.171875 5.71875 -5.890625 C 5.53125 -5.378906 5.316406 -4.925781 5.078125 -4.53125 C 4.847656 -4.132812 4.597656 -3.863281 4.328125 -3.71875 L 4.328125 -3.65625 C 4.617188 -3.613281 4.851562 -3.507812 5.03125 -3.34375 C 5.21875 -3.1875 5.390625 -2.910156 5.546875 -2.515625 C 5.597656 -2.367188 5.648438 -2.1875 5.703125 -1.96875 C 5.765625 -1.75 5.847656 -1.421875 5.953125 -0.984375 C 6.023438 -0.671875 5.992188 -0.425781 5.859375 -0.25 C 5.734375 -0.0820312 5.523438 0 5.234375 0 L 4.984375 0 C 4.472656 0 4.164062 -0.269531 4.0625 -0.8125 C 3.96875 -1.34375 3.875 -1.75 3.78125 -2.03125 C 3.6875 -2.3125 3.578125 -2.507812 3.453125 -2.625 C 3.335938 -2.738281 3.195312 -2.796875 3.03125 -2.796875 C 2.945312 -2.796875 2.875 -2.789062 2.8125 -2.78125 C 2.75 -2.78125 2.675781 -2.769531 2.59375 -2.75 C 2.59375 -2.425781 2.59375 -2.109375 2.59375 -1.796875 C 2.59375 -1.484375 2.59375 -1.164062 2.59375 -0.84375 C 2.59375 -0.570312 2.519531 -0.363281 2.375 -0.21875 C 2.226562 -0.0703125 2.019531 0 1.75 0 Z M 1.578125 0 "/></g></g></g></svg>